<?xml version="1.0" encoding="UTF-8" standalone="no"?>
<!DOCTYPE svg PUBLIC "-//W3C//DTD SVG 20010904//EN"
              "http://www.w3.org/TR/2001/REC-SVG-20010904/DTD/svg10.dtd">

<svg xmlns="http://www.w3.org/2000/svg"
     width="3.55556in" height="3.55556in"
     viewBox="0 0 256 256">
  <path id="文字"
        fill="black" stroke="white" stroke-width="2"
        d="M 34.59,165.00
           C 34.59,165.00 47.89,165.00 47.89,165.00
             47.89,165.00 64.55,97.30 64.55,97.30
             64.55,97.30 81.05,165.00 81.05,165.00
             81.05,165.00 94.36,165.00 94.36,165.00
             94.36,165.00 114.00,87.00 114.00,87.00
             114.00,87.00 103.27,87.00 103.27,87.00
             103.27,87.00 86.86,152.94 86.86,152.94
             86.86,152.94 70.42,87.00 70.42,87.00
             70.42,87.00 58.53,87.00 58.53,87.00
             58.53,87.00 42.14,152.94 42.14,152.94
             42.14,152.94 25.69,87.00 25.69,87.00
             25.69,87.00 15.00,87.00 15.00,87.00
             15.00,87.00 34.59,165.00 34.59,165.00 Z
           M 164.16,111.70
           C 159.59,106.57 153.39,104.00 145.56,104.00
             136.82,104.00 129.88,106.89 124.72,112.66
             119.57,118.42 117.00,126.21 117.00,136.03
             117.00,145.53 119.72,153.07 125.17,158.64
             130.63,164.21 138.02,167.00 147.36,167.00
             151.09,167.00 154.77,166.66 158.39,165.97
             162.02,165.29 165.55,164.30 169.00,163.00
             169.00,163.00 169.00,154.00 169.00,154.00
             165.58,155.67 162.14,156.92 158.67,157.75
             155.20,158.59 151.62,159.00 147.92,159.00
             141.54,159.00 136.55,157.13 132.98,153.38
             129.41,149.63 127.41,144.17 127.00,137.00
             127.00,137.00 171.00,137.00 171.00,137.00
             171.00,137.00 171.00,132.63 171.00,132.63
             171.00,123.80 168.72,116.83 164.16,111.70 Z
           M 127.31,130.05
           C 127.79,124.33 129.61,119.89 132.78,116.73
             135.95,113.58 140.16,112.00 145.44,112.00
             150.09,112.00 153.83,113.63 156.66,116.89
             159.48,120.15 160.93,124.52 161.00,130.00
             161.00,130.00 127.31,130.05 127.31,130.05 Z
           M 224.73,152.75
           C 221.89,156.92 217.98,159.00 213.00,159.00
             208.02,159.00 204.11,156.92 201.27,152.75
             198.42,148.57 197.00,142.82 197.00,135.50
             197.00,128.18 198.42,122.43 201.27,118.27
             204.11,114.09 208.02,112.00 213.00,112.00
             217.98,112.00 221.89,114.09 224.73,118.27
             227.58,122.43 229.00,128.18 229.00,135.50
             229.00,142.82 227.58,148.57 224.73,152.75 Z
           M 197.00,84.00
           C 197.00,84.00 187.00,84.00 187.00,84.00
             187.00,84.00 187.00,165.00 187.00,165.00
             187.00,165.00 197.00,165.00 197.00,165.00
             197.00,165.00 197.00,157.00 197.00,157.00
             198.99,160.39 201.50,162.90 204.53,164.55
             207.56,166.18 211.19,167.00 215.41,167.00
             222.39,167.00 228.07,164.11 232.44,158.33
             236.81,152.54 239.00,144.93 239.00,135.50
             239.00,126.07 236.81,118.47 232.44,112.69
             228.07,106.90 222.39,104.00 215.41,104.00
             211.19,104.00 207.56,104.82 204.53,106.47
             201.50,108.11 198.99,110.62 197.00,114.00
             197.00,114.00 197.00,84.00 197.00,84.00 Z" />
  <path id="曲線"
        fill="none" stroke="blue" stroke-width="4"
        d="M 124.00,187.00
           C 39.00,271.50 162.00,-52.50 160.00,91.00" />
</svg>
